<svg width="18" height="20" viewBox="0 0 18 20" fill="none" xmlns="http://www.w3.org/2000/svg">
<path d="M14.2319 19.9454C13.4491 19.9454 12.7793 19.6667 12.2224 19.1091C11.6654 18.5516 11.3865 17.8806 11.3855 17.0961V2.84935C11.3855 2.06578 11.6645 1.39523 12.2224 0.83771C12.7802 0.280188 13.4501 0.000952197 14.2319 2.4147e-06C15.0137 -0.000947367 15.684 0.278288 16.2429 0.83771C16.8017 1.39713 17.0802 2.06768 17.0783 2.84935V17.0961C17.0783 17.8796 16.7998 18.5507 16.2429 19.1091C15.6859 19.6676 15.0156 19.9464 14.2319 19.9454ZM2.84638 19.9454C2.06363 19.9454 1.39378 19.6667 0.836835 19.1091C0.279894 18.5516 0.000948793 17.8806 0 17.0961V2.84935C0 2.06578 0.278945 1.39523 0.836835 0.83771C1.39473 0.280188 2.06457 0.000952197 2.84638 2.4147e-06C3.62819 -0.000947367 4.29851 0.278288 4.85735 0.83771C5.41619 1.39713 5.69466 2.06768 5.69276 2.84935V17.0961C5.69276 17.8796 5.41429 18.5507 4.85735 19.1091C4.30041 19.6676 3.63008 19.9464 2.84638 19.9454Z" fill="#1A1A1A"/>
</svg>
